<mxfile host="app.diagrams.net" modified="2024-01-27T19:10:35.508Z" agent="Mozilla/5.0 (Macintosh; Intel Mac OS X 10.15; rv:121.0) Gecko/20100101 Firefox/121.0" etag="A3uwkebW-20cMazH42Cj" version="23.0.2" type="github">
  <diagram name="Page-1" id="T9tLXDJvgBRMGi7hSpRC">
    <mxGraphModel dx="1493" dy="959" grid="1" gridSize="10" guides="1" tooltips="1" connect="1" arrows="1" fold="1" page="1" pageScale="1" pageWidth="850" pageHeight="1100" math="0" shadow="0">
      <root>
        <mxCell id="0" />
        <mxCell id="1" parent="0" />
        <mxCell id="cN_8xUjMf07WC6kqqLmT-8" value="" style="edgeStyle=orthogonalEdgeStyle;rounded=0;orthogonalLoop=1;jettySize=auto;html=1;entryX=0;entryY=0.5;entryDx=0;entryDy=0;fontStyle=1" edge="1" parent="1" source="cN_8xUjMf07WC6kqqLmT-1" target="cN_8xUjMf07WC6kqqLmT-35">
          <mxGeometry relative="1" as="geometry" />
        </mxCell>
        <mxCell id="cN_8xUjMf07WC6kqqLmT-7" value="pt number available?" style="rhombus;whiteSpace=wrap;html=1;rounded=1;fontStyle=1" vertex="1" parent="1">
          <mxGeometry x="460" y="334.5" width="117" height="125" as="geometry" />
        </mxCell>
        <mxCell id="cN_8xUjMf07WC6kqqLmT-20" value="" style="edgeStyle=orthogonalEdgeStyle;rounded=0;orthogonalLoop=1;jettySize=auto;html=1;fontStyle=1" edge="1" parent="1" source="cN_8xUjMf07WC6kqqLmT-9" target="cN_8xUjMf07WC6kqqLmT-19">
          <mxGeometry relative="1" as="geometry" />
        </mxCell>
        <mxCell id="cN_8xUjMf07WC6kqqLmT-24" value="" style="edgeStyle=orthogonalEdgeStyle;rounded=0;orthogonalLoop=1;jettySize=auto;html=1;fontStyle=1" edge="1" parent="1" source="cN_8xUjMf07WC6kqqLmT-9" target="cN_8xUjMf07WC6kqqLmT-23">
          <mxGeometry relative="1" as="geometry" />
        </mxCell>
        <mxCell id="cN_8xUjMf07WC6kqqLmT-9" value="call patient" style="whiteSpace=wrap;html=1;rounded=1;fontStyle=1" vertex="1" parent="1">
          <mxGeometry x="650" y="367" width="120" height="60" as="geometry" />
        </mxCell>
        <mxCell id="cN_8xUjMf07WC6kqqLmT-13" value="" style="group;fontStyle=1" vertex="1" connectable="0" parent="1">
          <mxGeometry x="574" y="397" width="40" height="30" as="geometry" />
        </mxCell>
        <mxCell id="cN_8xUjMf07WC6kqqLmT-10" value="" style="edgeStyle=orthogonalEdgeStyle;rounded=0;orthogonalLoop=1;jettySize=auto;html=1;fontStyle=1" edge="1" parent="cN_8xUjMf07WC6kqqLmT-13" source="cN_8xUjMf07WC6kqqLmT-7" target="cN_8xUjMf07WC6kqqLmT-9">
          <mxGeometry relative="1" as="geometry" />
        </mxCell>
        <mxCell id="cN_8xUjMf07WC6kqqLmT-11" value="Yes" style="text;html=1;align=center;verticalAlign=middle;resizable=0;points=[];autosize=1;strokeColor=none;fillColor=none;fontStyle=1" vertex="1" parent="cN_8xUjMf07WC6kqqLmT-13">
          <mxGeometry width="40" height="30" as="geometry" />
        </mxCell>
        <mxCell id="cN_8xUjMf07WC6kqqLmT-15" value="" style="group;fontStyle=1" vertex="1" connectable="0" parent="1">
          <mxGeometry x="100" y="359.5" width="180" height="105" as="geometry" />
        </mxCell>
        <mxCell id="cN_8xUjMf07WC6kqqLmT-1" value="&lt;div&gt;enter highlighted data from&lt;/div&gt;&lt;div&gt;the records to calling sheet&lt;/div&gt;" style="rounded=1;whiteSpace=wrap;html=1;fontStyle=1" vertex="1" parent="cN_8xUjMf07WC6kqqLmT-15">
          <mxGeometry width="180" height="75" as="geometry" />
        </mxCell>
        <mxCell id="cN_8xUjMf07WC6kqqLmT-14" value="repeat daily / weekly" style="text;html=1;align=center;verticalAlign=middle;resizable=0;points=[];autosize=1;strokeColor=none;fillColor=none;fontStyle=1" vertex="1" parent="cN_8xUjMf07WC6kqqLmT-15">
          <mxGeometry x="11.25" y="75" width="140" height="30" as="geometry" />
        </mxCell>
        <mxCell id="cN_8xUjMf07WC6kqqLmT-18" value="wrong no. / incorrect no." style="text;html=1;align=center;verticalAlign=middle;resizable=0;points=[];autosize=1;strokeColor=none;fillColor=none;fontStyle=1" vertex="1" parent="1">
          <mxGeometry x="550" y="322" width="160" height="30" as="geometry" />
        </mxCell>
        <mxCell id="cN_8xUjMf07WC6kqqLmT-42" value="" style="edgeStyle=orthogonalEdgeStyle;rounded=0;orthogonalLoop=1;jettySize=auto;html=1;fontStyle=1" edge="1" parent="1" source="cN_8xUjMf07WC6kqqLmT-19" target="cN_8xUjMf07WC6kqqLmT-41">
          <mxGeometry relative="1" as="geometry" />
        </mxCell>
        <mxCell id="cN_8xUjMf07WC6kqqLmT-19" value="introduce &amp;amp; get data" style="whiteSpace=wrap;html=1;rounded=1;fillColor=#fefb53;fontStyle=1" vertex="1" parent="1">
          <mxGeometry x="910" y="367" width="130" height="60" as="geometry" />
        </mxCell>
        <mxCell id="cN_8xUjMf07WC6kqqLmT-21" value="correct" style="text;html=1;align=center;verticalAlign=middle;resizable=0;points=[];autosize=1;strokeColor=none;fillColor=none;fontStyle=1" vertex="1" parent="1">
          <mxGeometry x="780" y="367" width="60" height="30" as="geometry" />
        </mxCell>
        <mxCell id="cN_8xUjMf07WC6kqqLmT-26" value="" style="edgeStyle=orthogonalEdgeStyle;rounded=0;orthogonalLoop=1;jettySize=auto;html=1;fontStyle=1" edge="1" parent="1" source="cN_8xUjMf07WC6kqqLmT-23" target="cN_8xUjMf07WC6kqqLmT-25">
          <mxGeometry relative="1" as="geometry" />
        </mxCell>
        <mxCell id="cN_8xUjMf07WC6kqqLmT-23" value="address available?" style="rhombus;whiteSpace=wrap;html=1;rounded=1;fontStyle=1" vertex="1" parent="1">
          <mxGeometry x="565" y="140" width="130" height="135" as="geometry" />
        </mxCell>
        <mxCell id="cN_8xUjMf07WC6kqqLmT-29" value="" style="edgeStyle=orthogonalEdgeStyle;rounded=0;orthogonalLoop=1;jettySize=auto;html=1;fontStyle=1" edge="1" parent="1" source="cN_8xUjMf07WC6kqqLmT-25" target="cN_8xUjMf07WC6kqqLmT-28">
          <mxGeometry relative="1" as="geometry" />
        </mxCell>
        <mxCell id="cN_8xUjMf07WC6kqqLmT-25" value="try looking up &amp;amp; contacting nearby phc, panchayat, " style="whiteSpace=wrap;html=1;rounded=1;fillColor=#fefb53;fontStyle=1" vertex="1" parent="1">
          <mxGeometry x="750" y="177.5" width="120" height="60" as="geometry" />
        </mxCell>
        <mxCell id="cN_8xUjMf07WC6kqqLmT-32" value="" style="edgeStyle=orthogonalEdgeStyle;rounded=0;orthogonalLoop=1;jettySize=auto;html=1;fontStyle=1" edge="1" parent="1" source="cN_8xUjMf07WC6kqqLmT-28" target="cN_8xUjMf07WC6kqqLmT-19">
          <mxGeometry relative="1" as="geometry" />
        </mxCell>
        <mxCell id="cN_8xUjMf07WC6kqqLmT-33" style="edgeStyle=orthogonalEdgeStyle;rounded=0;orthogonalLoop=1;jettySize=auto;html=1;exitX=0.5;exitY=0;exitDx=0;exitDy=0;entryX=0.5;entryY=0;entryDx=0;entryDy=0;fontStyle=1" edge="1" parent="1" source="cN_8xUjMf07WC6kqqLmT-28" target="cN_8xUjMf07WC6kqqLmT-35">
          <mxGeometry relative="1" as="geometry">
            <Array as="points">
              <mxPoint x="975" y="80" />
              <mxPoint x="370" y="80" />
            </Array>
          </mxGeometry>
        </mxCell>
        <mxCell id="cN_8xUjMf07WC6kqqLmT-28" value="success?" style="rhombus;whiteSpace=wrap;html=1;rounded=1;fontStyle=1" vertex="1" parent="1">
          <mxGeometry x="935" y="167.5" width="80" height="80" as="geometry" />
        </mxCell>
        <mxCell id="cN_8xUjMf07WC6kqqLmT-31" value="Yes" style="text;html=1;align=center;verticalAlign=middle;resizable=0;points=[];autosize=1;strokeColor=none;fillColor=none;fontStyle=1" vertex="1" parent="1">
          <mxGeometry x="930" y="292" width="40" height="30" as="geometry" />
        </mxCell>
        <mxCell id="cN_8xUjMf07WC6kqqLmT-37" style="edgeStyle=orthogonalEdgeStyle;rounded=0;orthogonalLoop=1;jettySize=auto;html=1;exitX=1;exitY=0.5;exitDx=0;exitDy=0;entryX=0;entryY=0.5;entryDx=0;entryDy=0;fontStyle=1" edge="1" parent="1" source="cN_8xUjMf07WC6kqqLmT-35" target="cN_8xUjMf07WC6kqqLmT-7">
          <mxGeometry relative="1" as="geometry" />
        </mxCell>
        <mxCell id="cN_8xUjMf07WC6kqqLmT-35" value="take a patient" style="rounded=1;whiteSpace=wrap;html=1;fontStyle=1" vertex="1" parent="1">
          <mxGeometry x="320" y="361.75" width="100" height="70.5" as="geometry" />
        </mxCell>
        <mxCell id="cN_8xUjMf07WC6kqqLmT-44" style="edgeStyle=orthogonalEdgeStyle;rounded=0;orthogonalLoop=1;jettySize=auto;html=1;exitX=0.5;exitY=1;exitDx=0;exitDy=0;entryX=0.5;entryY=1;entryDx=0;entryDy=0;fontStyle=1" edge="1" parent="1" source="cN_8xUjMf07WC6kqqLmT-41" target="cN_8xUjMf07WC6kqqLmT-35">
          <mxGeometry relative="1" as="geometry">
            <Array as="points">
              <mxPoint x="1170" y="500" />
              <mxPoint x="370" y="500" />
            </Array>
          </mxGeometry>
        </mxCell>
        <mxCell id="cN_8xUjMf07WC6kqqLmT-41" value="enter in spreadsheet" style="whiteSpace=wrap;html=1;rounded=1;fontStyle=1" vertex="1" parent="1">
          <mxGeometry x="1110" y="367" width="140" height="60" as="geometry" />
        </mxCell>
        <mxCell id="cN_8xUjMf07WC6kqqLmT-43" value="No" style="text;html=1;align=center;verticalAlign=middle;resizable=0;points=[];autosize=1;strokeColor=none;fillColor=none;fontStyle=1" vertex="1" parent="1">
          <mxGeometry x="970" y="128" width="40" height="30" as="geometry" />
        </mxCell>
      </root>
    </mxGraphModel>
  </diagram>
</mxfile>
